<mxfile host="app.diagrams.net" modified="2022-05-04T22:25:29.056Z" agent="5.0 (Windows NT 10.0; Win64; x64) AppleWebKit/537.36 (KHTML, like Gecko) Chrome/100.0.4896.127 Safari/537.36" etag="g-Gx9HxDlezeTE1Fxibc" version="17.4.5" type="github">
  <diagram id="-QCvbYy8-glM7ENRcZFV" name="Page-1">
    <mxGraphModel dx="2903" dy="2263" grid="1" gridSize="10" guides="1" tooltips="1" connect="1" arrows="1" fold="1" page="1" pageScale="1" pageWidth="827" pageHeight="1169" math="0" shadow="0">
      <root>
        <mxCell id="0" />
        <mxCell id="1" parent="0" />
        <mxCell id="xzGXYvU11T9rDhcxcgDj-4" value="&lt;b&gt;&lt;font style=&quot;font-size: 35px&quot;&gt;App&lt;/font&gt;&lt;/b&gt;" style="text;html=1;align=center;verticalAlign=middle;whiteSpace=wrap;rounded=0;strokeWidth=3;fillColor=default;" parent="1" vertex="1">
          <mxGeometry x="657" y="-60" width="60" height="30" as="geometry" />
        </mxCell>
        <mxCell id="xzGXYvU11T9rDhcxcgDj-5" value="&lt;font style=&quot;font-size: 25px&quot;&gt;&lt;b&gt;배화여대 식당&lt;br&gt;&lt;/b&gt;&lt;b&gt;좌석 예약 희망자&lt;/b&gt;&lt;/font&gt;" style="shape=umlActor;verticalLabelPosition=bottom;verticalAlign=top;html=1;outlineConnect=0;fontSize=35;strokeWidth=3;" parent="1" vertex="1">
          <mxGeometry x="-190" y="351" width="43" height="86" as="geometry" />
        </mxCell>
        <mxCell id="xzGXYvU11T9rDhcxcgDj-12" value="&lt;b&gt;«actor»&lt;br&gt;&amp;nbsp;DB &amp;amp; PHP&lt;/b&gt;" style="html=1;fontSize=20;strokeWidth=3;" parent="1" vertex="1">
          <mxGeometry x="1560" y="160" width="195" height="50" as="geometry" />
        </mxCell>
        <mxCell id="xzGXYvU11T9rDhcxcgDj-16" value="&lt;b&gt;좌석 예약&lt;/b&gt;" style="ellipse;whiteSpace=wrap;html=1;fontSize=25;strokeWidth=3;" parent="1" vertex="1">
          <mxGeometry x="414" y="126.5" width="140" height="70" as="geometry" />
        </mxCell>
        <mxCell id="xzGXYvU11T9rDhcxcgDj-17" value="&lt;b&gt;예약 확인&lt;/b&gt;" style="ellipse;whiteSpace=wrap;html=1;fontSize=25;strokeWidth=3;" parent="1" vertex="1">
          <mxGeometry x="414" y="490" width="140" height="70" as="geometry" />
        </mxCell>
        <mxCell id="xzGXYvU11T9rDhcxcgDj-18" value="&lt;b&gt;혼잡도 확인&lt;/b&gt;" style="ellipse;whiteSpace=wrap;html=1;fontSize=25;strokeWidth=3;" parent="1" vertex="1">
          <mxGeometry x="414" y="680" width="140" height="70" as="geometry" />
        </mxCell>
        <mxCell id="xzGXYvU11T9rDhcxcgDj-35" value="" style="endArrow=none;html=1;rounded=0;fontSize=25;strokeWidth=3;entryX=0;entryY=0.5;entryDx=0;entryDy=0;exitX=1;exitY=0.3333333333333333;exitDx=0;exitDy=0;exitPerimeter=0;" parent="1" source="iIt3q8JstOjo-wZFKdjv-8" target="xzGXYvU11T9rDhcxcgDj-16" edge="1">
          <mxGeometry relative="1" as="geometry">
            <mxPoint x="150" y="360" as="sourcePoint" />
            <mxPoint x="510" y="390" as="targetPoint" />
          </mxGeometry>
        </mxCell>
        <mxCell id="xzGXYvU11T9rDhcxcgDj-36" value="" style="endArrow=none;html=1;rounded=0;fontSize=25;strokeWidth=3;entryX=0;entryY=0.5;entryDx=0;entryDy=0;exitX=1;exitY=0.3333333333333333;exitDx=0;exitDy=0;exitPerimeter=0;" parent="1" source="iIt3q8JstOjo-wZFKdjv-8" target="xzGXYvU11T9rDhcxcgDj-18" edge="1">
          <mxGeometry relative="1" as="geometry">
            <mxPoint x="170" y="430" as="sourcePoint" />
            <mxPoint x="510" y="390" as="targetPoint" />
          </mxGeometry>
        </mxCell>
        <mxCell id="xzGXYvU11T9rDhcxcgDj-37" value="" style="endArrow=none;html=1;rounded=0;fontSize=25;strokeWidth=3;entryX=0;entryY=0.5;entryDx=0;entryDy=0;exitX=1;exitY=0.3333333333333333;exitDx=0;exitDy=0;exitPerimeter=0;" parent="1" source="iIt3q8JstOjo-wZFKdjv-8" target="xzGXYvU11T9rDhcxcgDj-17" edge="1">
          <mxGeometry relative="1" as="geometry">
            <mxPoint x="170" y="380" as="sourcePoint" />
            <mxPoint x="280" y="405" as="targetPoint" />
          </mxGeometry>
        </mxCell>
        <mxCell id="xzGXYvU11T9rDhcxcgDj-39" value="&lt;span style=&quot;font-size: 20px&quot;&gt;&lt;b&gt;전화번호 인증&lt;/b&gt;&lt;/span&gt;" style="ellipse;whiteSpace=wrap;html=1;fontSize=25;strokeWidth=3;" parent="1" vertex="1">
          <mxGeometry x="750" y="50" width="140" height="70" as="geometry" />
        </mxCell>
        <mxCell id="xzGXYvU11T9rDhcxcgDj-41" value="&lt;b&gt;&amp;lt;&amp;lt;includes&amp;gt;&amp;gt;&lt;/b&gt;" style="endArrow=open;endSize=12;dashed=1;html=1;rounded=0;fontSize=20;strokeWidth=3;exitX=0;exitY=0.5;exitDx=0;exitDy=0;entryX=0.971;entryY=0.193;entryDx=0;entryDy=0;entryPerimeter=0;" parent="1" source="xzGXYvU11T9rDhcxcgDj-39" target="xzGXYvU11T9rDhcxcgDj-16" edge="1">
          <mxGeometry width="160" relative="1" as="geometry">
            <mxPoint x="501" y="296.5" as="sourcePoint" />
            <mxPoint x="661" y="296.5" as="targetPoint" />
          </mxGeometry>
        </mxCell>
        <mxCell id="xzGXYvU11T9rDhcxcgDj-43" value="&lt;span style=&quot;font-size: 20px&quot;&gt;&lt;b&gt;예약번호&lt;br&gt;발급&lt;br&gt;&lt;/b&gt;&lt;/span&gt;" style="ellipse;whiteSpace=wrap;html=1;fontSize=25;strokeWidth=3;" parent="1" vertex="1">
          <mxGeometry x="751" y="150" width="140" height="70" as="geometry" />
        </mxCell>
        <mxCell id="xzGXYvU11T9rDhcxcgDj-45" value="&lt;b&gt;&amp;lt;&amp;lt;includes&amp;gt;&amp;gt;&lt;/b&gt;" style="endArrow=open;endSize=12;dashed=1;html=1;rounded=0;fontSize=20;strokeWidth=3;exitX=0;exitY=0.5;exitDx=0;exitDy=0;entryX=1;entryY=0.5;entryDx=0;entryDy=0;" parent="1" source="xzGXYvU11T9rDhcxcgDj-43" target="xzGXYvU11T9rDhcxcgDj-16" edge="1">
          <mxGeometry width="160" relative="1" as="geometry">
            <mxPoint x="751" y="81.5" as="sourcePoint" />
            <mxPoint x="564" y="171.5" as="targetPoint" />
          </mxGeometry>
        </mxCell>
        <mxCell id="xzGXYvU11T9rDhcxcgDj-46" value="&lt;span style=&quot;font-size: 20px&quot;&gt;&lt;b&gt;전화번호&lt;br&gt;암호화&lt;br&gt;&lt;/b&gt;&lt;/span&gt;" style="ellipse;whiteSpace=wrap;html=1;fontSize=25;strokeWidth=3;" parent="1" vertex="1">
          <mxGeometry x="1174" y="56.5" width="140" height="70" as="geometry" />
        </mxCell>
        <mxCell id="xzGXYvU11T9rDhcxcgDj-47" value="&lt;b&gt;&amp;lt;&amp;lt;includes&amp;gt;&amp;gt;&lt;/b&gt;" style="endArrow=open;endSize=12;dashed=1;html=1;rounded=0;fontSize=20;strokeWidth=3;exitX=0;exitY=0.5;exitDx=0;exitDy=0;entryX=1;entryY=0.5;entryDx=0;entryDy=0;" parent="1" source="xzGXYvU11T9rDhcxcgDj-46" target="xzGXYvU11T9rDhcxcgDj-39" edge="1">
          <mxGeometry width="160" relative="1" as="geometry">
            <mxPoint x="751" y="71.5" as="sourcePoint" />
            <mxPoint x="565.2600000000002" y="159.52999999999997" as="targetPoint" />
          </mxGeometry>
        </mxCell>
        <mxCell id="xzGXYvU11T9rDhcxcgDj-49" value="&lt;span style=&quot;font-size: 20px&quot;&gt;&lt;b&gt;시간대 선택&lt;br&gt;&lt;/b&gt;&lt;/span&gt;" style="ellipse;whiteSpace=wrap;html=1;fontSize=25;strokeWidth=3;" parent="1" vertex="1">
          <mxGeometry x="570" y="269" width="140" height="70" as="geometry" />
        </mxCell>
        <mxCell id="xzGXYvU11T9rDhcxcgDj-50" value="&lt;b&gt;&amp;lt;&amp;lt;includes&amp;gt;&amp;gt;&lt;/b&gt;" style="endArrow=open;endSize=12;dashed=1;html=1;rounded=0;fontSize=20;strokeWidth=3;exitX=0.5;exitY=0;exitDx=0;exitDy=0;entryX=0;entryY=1;entryDx=0;entryDy=0;" parent="1" source="xzGXYvU11T9rDhcxcgDj-49" target="xzGXYvU11T9rDhcxcgDj-43" edge="1">
          <mxGeometry x="-0.065" y="5" width="160" relative="1" as="geometry">
            <mxPoint x="1061" y="-108.49999999999977" as="sourcePoint" />
            <mxPoint x="881.0051006962585" y="-42.99229421857535" as="targetPoint" />
            <mxPoint as="offset" />
          </mxGeometry>
        </mxCell>
        <mxCell id="xzGXYvU11T9rDhcxcgDj-51" value="&lt;b style=&quot;font-size: 20px&quot;&gt;좌석 x,y&lt;br&gt;좌표값&lt;/b&gt;&lt;span style=&quot;font-size: 20px&quot;&gt;&lt;b&gt;&lt;br&gt;&lt;/b&gt;&lt;/span&gt;" style="ellipse;whiteSpace=wrap;html=1;fontSize=25;strokeWidth=3;" parent="1" vertex="1">
          <mxGeometry x="751" y="296.5" width="140" height="70" as="geometry" />
        </mxCell>
        <mxCell id="xzGXYvU11T9rDhcxcgDj-52" value="&lt;b&gt;&amp;lt;&amp;lt;includes&amp;gt;&amp;gt;&lt;/b&gt;" style="endArrow=open;endSize=12;dashed=1;html=1;rounded=0;fontSize=20;strokeWidth=3;exitX=0.5;exitY=0;exitDx=0;exitDy=0;entryX=0.5;entryY=1;entryDx=0;entryDy=0;" parent="1" source="xzGXYvU11T9rDhcxcgDj-51" target="xzGXYvU11T9rDhcxcgDj-43" edge="1">
          <mxGeometry x="-0.4223" y="6" width="160" relative="1" as="geometry">
            <mxPoint x="1071" y="1.5" as="sourcePoint" />
            <mxPoint x="881.0051006962585" y="67.00770578142465" as="targetPoint" />
            <mxPoint x="1" as="offset" />
          </mxGeometry>
        </mxCell>
        <mxCell id="xzGXYvU11T9rDhcxcgDj-53" value="&lt;span style=&quot;font-size: 20px&quot;&gt;&lt;b&gt;예약 인원수&lt;br&gt;&lt;/b&gt;&lt;/span&gt;" style="ellipse;whiteSpace=wrap;html=1;fontSize=25;strokeWidth=3;" parent="1" vertex="1">
          <mxGeometry x="950" y="269" width="140" height="70" as="geometry" />
        </mxCell>
        <mxCell id="xzGXYvU11T9rDhcxcgDj-54" value="&lt;b&gt;&amp;lt;&amp;lt;includes&amp;gt;&amp;gt;&lt;/b&gt;" style="endArrow=open;endSize=12;dashed=1;html=1;rounded=0;fontSize=20;strokeWidth=3;exitX=0.5;exitY=0;exitDx=0;exitDy=0;entryX=1;entryY=1;entryDx=0;entryDy=0;" parent="1" source="xzGXYvU11T9rDhcxcgDj-53" target="xzGXYvU11T9rDhcxcgDj-43" edge="1">
          <mxGeometry x="-0.4695" y="-7" width="160" relative="1" as="geometry">
            <mxPoint x="1071" y="81.5" as="sourcePoint" />
            <mxPoint x="901" y="91.5" as="targetPoint" />
            <mxPoint as="offset" />
          </mxGeometry>
        </mxCell>
        <mxCell id="xzGXYvU11T9rDhcxcgDj-55" value="&lt;span style=&quot;font-size: 20px&quot;&gt;&lt;b&gt;예약번호 인증&lt;/b&gt;&lt;/span&gt;" style="ellipse;whiteSpace=wrap;html=1;fontSize=25;strokeWidth=3;" parent="1" vertex="1">
          <mxGeometry x="741" y="490" width="140" height="70" as="geometry" />
        </mxCell>
        <mxCell id="xzGXYvU11T9rDhcxcgDj-56" value="&lt;b&gt;&amp;lt;&amp;lt;includes&amp;gt;&amp;gt;&lt;/b&gt;" style="endArrow=open;endSize=12;dashed=1;html=1;rounded=0;fontSize=20;strokeWidth=3;exitX=0;exitY=0.5;exitDx=0;exitDy=0;entryX=1;entryY=0.5;entryDx=0;entryDy=0;" parent="1" source="xzGXYvU11T9rDhcxcgDj-55" target="xzGXYvU11T9rDhcxcgDj-17" edge="1">
          <mxGeometry width="160" relative="1" as="geometry">
            <mxPoint x="751" y="400" as="sourcePoint" />
            <mxPoint x="564" y="390" as="targetPoint" />
          </mxGeometry>
        </mxCell>
        <mxCell id="xzGXYvU11T9rDhcxcgDj-58" value="&lt;span&gt;&lt;b style=&quot;font-size: 23px&quot;&gt;&lt;font style=&quot;font-size: 23px&quot;&gt;정보 가공,&lt;br&gt;저장, 공유&lt;/font&gt;&lt;br&gt;&lt;/b&gt;&lt;/span&gt;" style="ellipse;whiteSpace=wrap;html=1;fontSize=25;strokeWidth=3;" parent="1" vertex="1">
          <mxGeometry x="1350" y="150" width="140" height="70" as="geometry" />
        </mxCell>
        <mxCell id="xzGXYvU11T9rDhcxcgDj-60" value="" style="endArrow=none;html=1;rounded=0;fontSize=25;strokeWidth=3;entryX=0;entryY=0.5;entryDx=0;entryDy=0;exitX=1;exitY=0.5;exitDx=0;exitDy=0;" parent="1" source="xzGXYvU11T9rDhcxcgDj-46" target="xzGXYvU11T9rDhcxcgDj-58" edge="1">
          <mxGeometry relative="1" as="geometry">
            <mxPoint x="7" y="306.1666666666665" as="sourcePoint" />
            <mxPoint x="424" y="171.5" as="targetPoint" />
          </mxGeometry>
        </mxCell>
        <mxCell id="xzGXYvU11T9rDhcxcgDj-61" value="" style="endArrow=none;html=1;rounded=0;fontSize=25;strokeWidth=3;exitX=1;exitY=0.5;exitDx=0;exitDy=0;entryX=0;entryY=0.5;entryDx=0;entryDy=0;" parent="1" source="xzGXYvU11T9rDhcxcgDj-43" target="xzGXYvU11T9rDhcxcgDj-58" edge="1">
          <mxGeometry relative="1" as="geometry">
            <mxPoint x="1201" y="-18.5" as="sourcePoint" />
            <mxPoint x="1450" y="270" as="targetPoint" />
          </mxGeometry>
        </mxCell>
        <mxCell id="xzGXYvU11T9rDhcxcgDj-62" value="" style="endArrow=none;html=1;rounded=0;fontSize=25;strokeWidth=3;exitX=1;exitY=0.5;exitDx=0;exitDy=0;entryX=0;entryY=0.5;entryDx=0;entryDy=0;" parent="1" source="xzGXYvU11T9rDhcxcgDj-58" target="xzGXYvU11T9rDhcxcgDj-12" edge="1">
          <mxGeometry relative="1" as="geometry">
            <mxPoint x="647" y="156" as="sourcePoint" />
            <mxPoint x="1360.3282603628522" y="191.61441674397474" as="targetPoint" />
          </mxGeometry>
        </mxCell>
        <mxCell id="iIt3q8JstOjo-wZFKdjv-3" value="" style="endArrow=none;html=1;rounded=0;fontSize=25;strokeWidth=3;exitX=1;exitY=0.5;exitDx=0;exitDy=0;entryX=0;entryY=0.5;entryDx=0;entryDy=0;" edge="1" parent="1" source="xzGXYvU11T9rDhcxcgDj-55" target="xzGXYvU11T9rDhcxcgDj-58">
          <mxGeometry relative="1" as="geometry">
            <mxPoint x="891" y="285" as="sourcePoint" />
            <mxPoint x="1610" y="570" as="targetPoint" />
          </mxGeometry>
        </mxCell>
        <mxCell id="iIt3q8JstOjo-wZFKdjv-5" value="&lt;b&gt;«actor»&lt;br&gt;키오스크 시스템&lt;/b&gt;" style="html=1;fontSize=20;strokeWidth=3;" vertex="1" parent="1">
          <mxGeometry x="1560" y="500" width="195" height="50" as="geometry" />
        </mxCell>
        <mxCell id="iIt3q8JstOjo-wZFKdjv-8" value="&lt;span style=&quot;font-size: 25px&quot;&gt;&lt;b&gt;예약자의&lt;br&gt;휴대폰&lt;/b&gt;&lt;/span&gt;" style="shape=umlActor;verticalLabelPosition=bottom;verticalAlign=top;html=1;outlineConnect=0;fontSize=35;strokeWidth=3;" vertex="1" parent="1">
          <mxGeometry x="40" y="351" width="43" height="86" as="geometry" />
        </mxCell>
        <mxCell id="iIt3q8JstOjo-wZFKdjv-10" value="" style="endArrow=none;html=1;rounded=0;fontSize=25;strokeWidth=3;exitX=1;exitY=0.3333333333333333;exitDx=0;exitDy=0;entryX=0;entryY=0.3333333333333333;entryDx=0;entryDy=0;exitPerimeter=0;entryPerimeter=0;" edge="1" parent="1" source="xzGXYvU11T9rDhcxcgDj-5" target="iIt3q8JstOjo-wZFKdjv-8">
          <mxGeometry relative="1" as="geometry">
            <mxPoint x="891" y="535" as="sourcePoint" />
            <mxPoint x="1360" y="195" as="targetPoint" />
          </mxGeometry>
        </mxCell>
      </root>
    </mxGraphModel>
  </diagram>
</mxfile>
